<?xml version="1.0" standalone="no"?>
<!DOCTYPE svg PUBLIC "-//W3C//DTD SVG 20010904//EN"
 "http://www.w3.org/TR/2001/REC-SVG-20010904/DTD/svg10.dtd">
<svg version="1.0" xmlns="http://www.w3.org/2000/svg"
 width="700.000000pt" height="700.000000pt" viewBox="0 0 700.000000 700.000000"
 preserveAspectRatio="xMidYMid meet">
<metadata>
Created by potrace 1.11, written by Peter Selinger 2001-2013
</metadata>
<g transform="translate(0.000000,700.000000) scale(0.100000,-0.100000)"
fill="#000000" stroke="none">
<path d="M2705 5642 c-166 -102 -522 -749 -561 -1019 -7 -52 -52 -131 -205
-358 -104 -155 -190 -309 -326 -585 -133 -268 -202 -436 -279 -685 l-37 -120
-14 40 c-8 22 -25 90 -38 152 -29 137 -85 306 -132 394 -55 107 -185 218 -308
265 -73 28 -229 25 -309 -6 -110 -42 -187 -150 -194 -272 -7 -113 32 -190 140
-275 64 -51 256 -163 278 -163 10 0 11 -17 6 -67 -36 -338 -34 -713 5 -1038
29 -248 72 -474 109 -585 27 -80 109 -247 145 -294 l27 -35 -50 -133 c-95
-253 -204 -646 -218 -787 l-7 -71 62 0 61 0 0 53 c0 84 107 490 181 689 17 46
44 118 60 161 32 86 36 119 15 136 -8 7 -20 35 -27 64 -7 28 -24 86 -40 127
-15 41 -41 140 -59 220 -18 80 -39 172 -46 205 -7 33 -29 183 -49 332 -35 269
-35 278 -36 650 0 417 -3 439 -54 457 -54 19 -220 113 -283 161 -33 25 -70 60
-81 78 -55 90 -25 223 61 269 37 20 57 23 153 23 106 0 112 -1 165 -32 84 -49
153 -115 187 -180 42 -78 100 -247 125 -363 11 -52 42 -167 68 -255 44 -147
62 -227 121 -525 27 -138 27 -138 52 -155 28 -18 61 -10 77 20 10 18 8 41 -9
121 -11 55 -28 140 -37 189 -9 50 -19 100 -21 113 -4 15 -1 22 10 22 17 0 156
55 168 67 4 4 5 31 0 58 -17 115 47 185 169 185 36 0 81 -5 101 -10 32 -9 40
-18 59 -65 15 -36 41 -73 79 -109 171 -166 296 -220 559 -238 174 -12 244 -3
422 58 216 73 301 129 386 254 43 62 84 170 96 249 30 207 -43 518 -156 667
-20 26 -36 50 -36 54 0 4 26 27 58 51 78 59 166 151 215 226 l41 63 24 -68
c42 -122 66 -176 112 -261 l47 -83 -37 -74 c-52 -102 -70 -183 -70 -307 0
-128 24 -231 81 -342 54 -105 86 -146 182 -229 210 -179 546 -270 823 -221
l99 17 125 -65 c298 -156 583 -249 807 -263 107 -7 364 23 456 53 27 8 51 13
53 10 11 -11 55 -226 70 -337 l15 -115 -33 -30 c-96 -88 -196 -232 -293 -425
-140 -277 -203 -637 -176 -990 11 -140 20 -179 69 -305 l20 -50 346 -3 346 -2
7 27 c5 16 8 428 8 918 0 982 -1 1001 -66 1318 -33 165 -197 687 -261 832 -22
50 -67 155 -99 235 -83 202 -122 265 -232 373 l-48 48 10 106 c14 136 14 801
0 956 -5 65 -21 156 -34 203 -14 46 -25 103 -25 126 0 119 -144 190 -324 159
-80 -14 -358 -147 -445 -214 -73 -54 -336 -318 -381 -380 l-34 -48 -71 6 c-87
7 -212 23 -285 35 -236 41 -645 88 -839 98 l-133 7 -23 60 c-46 123 -96 229
-171 363 -100 178 -137 233 -207 309 -108 115 -191 148 -262 105z m2024 -1821
c177 -60 298 -154 356 -277 15 -31 38 -106 52 -168 21 -91 24 -127 20 -201
-10 -165 -83 -330 -181 -410 -143 -115 -414 -159 -637 -102 -239 62 -414 188
-498 358 -85 174 -90 266 -23 446 54 145 89 195 172 243 121 70 205 109 265
124 33 8 69 17 80 20 11 3 83 4 160 2 127 -3 149 -6 234 -35z m-1834 -25 c28
-10 91 -42 141 -71 79 -47 96 -62 132 -117 84 -128 120 -251 129 -434 5 -107
3 -129 -16 -194 -59 -194 -201 -295 -522 -369 -75 -18 -101 -19 -220 -11 -160
10 -267 40 -355 100 -114 77 -159 137 -201 269 -24 74 -28 102 -27 196 1 97 5
121 33 200 45 128 75 182 134 245 86 92 123 112 327 184 67 23 82 24 245 22
115 -2 162 -6 200 -20z m2507 -1094 c63 -39 87 -100 69 -170 -24 -88 -75 -120
-205 -129 -67 -5 -89 -2 -120 12 -50 24 -96 95 -96 148 0 34 7 46 63 101 35
35 68 65 75 67 7 2 50 2 95 -1 61 -4 92 -12 119 -28z"/>
<path d="M4176 3523 c-42 -12 -147 -77 -172 -106 -43 -52 -54 -89 -54 -189 1
-145 43 -212 165 -257 75 -28 202 -31 262 -7 45 19 129 110 139 152 13 50 -1
158 -27 214 -30 64 -110 149 -165 175 -40 19 -114 28 -148 18z"/>
<path d="M2300 3489 c-104 -40 -163 -126 -177 -259 -10 -96 51 -205 142 -253
53 -28 202 -30 252 -4 133 70 182 195 133 341 -23 71 -59 115 -130 162 -55 37
-145 42 -220 13z"/>
<path d="M1815 5412 c-6 -4 -21 -24 -35 -44 -34 -51 -117 -88 -197 -88 -79 0
-116 14 -148 56 -19 25 -34 34 -54 34 -40 0 -48 -15 -53 -100 -7 -163 -121
-293 -275 -316 -78 -12 -128 3 -195 57 -34 27 -65 49 -69 49 -4 0 -19 -10 -33
-22 -26 -25 -22 13 -53 -474 -4 -67 -2 -83 12 -97 23 -24 62 -21 79 6 16 25
36 206 36 333 l0 82 58 -24 c68 -28 172 -32 250 -9 117 35 230 144 280 271 17
41 24 49 44 46 12 -2 64 -4 113 -5 78 -1 99 2 154 26 81 34 142 84 165 136 18
38 18 42 2 66 -16 25 -58 34 -81 17z"/>
<path d="M2903 2370 c-107 -55 -164 -216 -114 -325 22 -49 77 -99 126 -115 23
-8 71 -11 124 -8 70 3 99 10 152 34 36 17 81 45 100 62 l36 31 29 -30 c143
-150 405 -174 546 -50 109 96 118 241 15 241 -39 0 -58 -17 -90 -81 -56 -112
-223 -125 -359 -28 -16 12 -40 45 -53 75 -21 48 -27 54 -54 54 -16 0 -31 -5
-33 -11 -2 -6 -19 -13 -37 -15 -23 -3 -51 -20 -92 -58 -64 -60 -132 -89 -210
-90 -66 -1 -89 21 -89 88 0 80 39 130 114 145 16 4 35 16 43 27 12 18 11 24
-5 44 -26 33 -95 37 -149 10z"/>
<path d="M3950 1462 c-116 -39 -169 -82 -240 -195 -58 -92 -80 -169 -80 -274
0 -135 54 -239 190 -369 82 -79 110 -100 260 -196 224 -145 822 -428 903 -428
17 0 32 9 43 26 29 43 -2 69 -147 129 -282 117 -638 299 -807 413 -55 37 -135
100 -179 141 -68 61 -87 86 -118 153 -36 77 -38 83 -32 160 4 63 12 93 37 142
72 140 130 193 223 203 105 11 184 -39 206 -129 14 -60 14 -187 -1 -299 -15
-111 -7 -131 54 -147 23 -6 90 -14 148 -17 364 -18 643 -39 763 -55 93 -13
145 -16 162 -10 47 18 41 94 -8 105 -70 16 -373 45 -567 56 -124 6 -272 14
-330 18 l-105 6 5 80 c14 232 -6 350 -72 417 -74 76 -202 105 -308 70z"/>
</g>
</svg>
